<?xml version="1.0" encoding="utf-8"?>
<!-- Generator: Adobe Illustrator 16.2.1, SVG Export Plug-In . SVG Version: 6.00 Build 0)  -->
<!DOCTYPE svg PUBLIC "-//W3C//DTD SVG 1.1//EN" "http://www.w3.org/Graphics/SVG/1.1/DTD/svg11.dtd">
<svg width="701px" height="185px" viewBox="0 0 701 185" version="1.1" >
    <title>CODAPS</title>
    <description>Thank you for submitting</description>
    <defs></defs>
      <g id="Page-1">
        <g transform="translate(1.000000, 0.000000)">
          <g transform="translate(243.000000, 50.000000)">
          </g>
          <g>
            <path class="logo" d="M-0.162,88.289 C-0.162,88.289 0.008,86.733 0.327,83.817 C0.509,82.362 0.848,80.575 1.185,78.463 C1.662,76.385 2.084,73.96 2.861,71.319 C4.285,66.008 6.551,59.673 10.052,52.826 C11.781,49.392 13.882,45.867 16.324,42.305 C18.774,38.745 21.632,35.204 24.806,31.678 C28.035,28.201 31.641,24.802 35.618,21.575 C39.584,18.329 44.029,15.409 48.763,12.722 C58.234,7.353 69.215,3.34 80.973,1.546 C86.846,0.637 92.897,0.25 99.003,0.43 C102.067,0.499 105.103,0.766 108.207,1.123 C109.72,1.345 111.229,1.524 112.755,1.782 C114.285,2.08 115.819,2.379 117.356,2.679 C123.435,4.036 129.425,5.992 135.192,8.511 C140.947,11.054 146.468,14.167 151.632,17.777 C156.803,21.376 161.614,25.476 165.975,29.968 C170.368,34.43 174.31,39.294 177.735,44.441 C184.664,54.692 189.501,66.067 192.257,77.545 C194.998,89.04 195.577,100.649 194.177,111.454 C193.994,112.785 193.813,114.107 193.633,115.421 C193.404,116.738 193.109,118.052 192.851,119.353 C192.389,121.979 191.616,124.46 190.944,126.929 C190.63,128.17 190.139,129.345 189.75,130.539 C189.324,131.721 188.961,132.915 188.492,134.056 C188.016,135.195 187.544,136.323 187.077,137.439 C186.844,137.997 186.611,138.552 186.38,139.104 C186.115,139.642 185.852,140.176 185.59,140.709 C181.489,149.263 176.532,156.493 171.451,162.259 C166.385,168.046 161.33,172.481 156.959,175.819 C152.51,179.064 148.839,181.344 146.265,182.765 C143.673,184.148 142.29,184.886 142.29,184.886 L142.173,184.665 C142.173,184.665 143.508,183.853 146.01,182.333 C148.498,180.798 152.055,178.388 156.312,174.992 C160.481,171.497 165.393,167.042 170.205,161.2 C174.999,155.365 179.807,148.255 183.728,139.833 C183.978,139.31 184.23,138.784 184.484,138.255 C184.704,137.712 184.925,137.166 185.148,136.617 C185.593,135.519 186.043,134.412 186.496,133.294 C186.943,132.173 187.283,131 187.687,129.84 C188.054,128.668 188.524,127.516 188.816,126.299 C189.429,123.877 190.208,121.441 190.658,118.918 C190.911,117.657 191.202,116.404 191.431,115.111 C191.621,113.799 191.813,112.478 192.006,111.148 C192.102,110.495 192.197,109.839 192.294,109.181 C192.355,108.515 192.416,107.846 192.477,107.175 C192.586,105.833 192.762,104.485 192.785,103.119 C192.831,101.756 192.934,100.385 192.952,99.003 C192.947,97.621 192.942,96.232 192.937,94.833 C192.771,89.244 192.126,83.541 190.942,77.838 C188.622,66.424 183.921,55.065 177.092,44.872 C173.651,39.795 169.7,35.007 165.312,30.625 C160.895,26.273 156.041,22.338 150.862,18.909 C145.677,15.487 140.166,12.578 134.458,10.233 C128.76,7.864 122.862,6.054 116.895,4.832 C115.406,4.564 113.92,4.296 112.437,4.029 C110.938,3.791 109.406,3.624 107.897,3.419 C104.937,3.11 101.916,2.873 98.943,2.838 C92.983,2.723 87.091,3.161 81.384,4.104 C75.679,5.06 70.144,6.457 64.894,8.312 C59.65,10.184 54.677,12.444 50.031,15 C40.721,20.105 32.836,26.499 26.399,33.171 C20.03,39.925 15.104,46.955 11.481,53.588 C7.824,60.212 5.451,66.412 3.818,71.602 C2.942,74.184 2.428,76.566 1.87,78.611 C1.45,80.683 1.051,82.44 0.797,83.882 C0.333,86.778 0.085,88.323 0.085,88.323 L-0.162,88.289 L-0.162,88.289 Z"></path>
            <path class="logo" d="M127.871,162.901 L126.698,158.998 C126.505,158.348 126.325,157.691 126.121,157.045 L125.421,155.145 L124.723,153.25 C124.6,152.923 124.507,152.633 124.361,152.321 L123.952,151.387 L123.135,149.521 C122.872,148.892 122.548,148.304 122.266,147.691 L122.001,147.114 L122.694,146.851 L123.654,146.488 C123.973,146.364 124.277,146.141 124.588,145.974 L125.053,145.704 L125.496,145.377 L126.381,144.724 C127.522,143.778 128.619,142.766 129.666,141.691 C131.764,139.545 133.716,137.238 135.619,134.891 C137.538,132.551 139.368,130.155 141.23,127.73 C141.462,127.428 141.701,127.123 141.964,126.804 L142.061,126.687 L142.085,126.658 L142.097,126.643 L142.103,126.635 L142.186,126.549 L142.238,126.501 L142.447,126.307 L142.865,125.919 C143.182,125.657 143.641,125.39 144.033,125.144 C144.428,124.946 144.812,124.79 145.203,124.615 L146.391,124.236 C146.791,124.148 147.189,124.043 147.591,123.971 C148.398,123.834 149.194,123.735 150.046,123.722 L151.114,123.707 L151.137,124.796 L151.238,129.553 L149.763,128.517 L152.835,127.456 L152.143,128.136 L153.853,123.428 C154.367,121.957 154.912,120.503 155.484,119.037 L155.636,118.512 C156.903,116.397 158.099,114.196 159.201,111.989 L159.987,110.318 L160.667,108.627 C160.853,108.086 161.009,107.457 161.167,106.988 L161.411,105.119 C161.559,103.875 161.777,102.623 161.837,101.389 L162.119,97.672 C162.229,96.436 162.265,95.177 162.331,93.927 C162.374,92.691 162.493,91.388 162.472,90.206 L162.485,88.433 L162.359,87.98 L162.194,87.631 C162.075,87.396 161.912,87.131 161.749,86.889 C161.064,85.906 160.206,85.001 159.319,84.138 C157.537,82.405 155.56,80.856 153.567,79.343 C151.569,77.831 149.506,76.402 147.412,75.02 C145.322,73.635 143.202,72.284 141.063,70.985 L140.98,70.934 L140.936,70.869 C139.763,69.108 138.694,67.418 137.431,65.795 C136.196,64.169 134.874,62.613 133.479,61.131 C130.697,58.158 127.563,55.527 124.155,53.354 C122.456,52.259 120.664,51.323 118.835,50.487 C117.008,49.641 115.105,48.985 113.183,48.417 C111.249,47.882 109.281,47.487 107.292,47.244 C106.298,47.124 105.297,47.056 104.298,46.995 C103.296,46.991 102.296,46.912 101.294,46.972 C100.292,46.995 99.291,47.032 98.292,47.144 C97.799,47.193 97.278,47.226 96.809,47.288 L95.281,47.502 L89.231,48.502 L83.139,49.537 L81.597,49.783 C81.315,49.824 81.132,49.893 80.769,49.935 C80.558,49.956 80.343,50.002 80.13,50.002 L79.813,50.002 L79.734,49.967 L79.643,49.927 L79.55,49.892 C78.475,49.554 77.574,49.251 76.649,49.048 C74.79,48.648 72.924,48.654 71.146,49.079 C69.294,49.546 67.521,50.323 66.021,51.419 C64.496,52.491 63.318,53.934 62.561,55.576 C61.787,57.217 61.518,59.091 61.6,60.985 L61.616,61.362 L61.43,61.696 L59.345,65.448 C58.674,66.708 57.897,67.928 57.153,69.16 L52.614,76.511 C51.869,77.746 51.081,78.946 50.276,80.134 C49.471,81.331 48.663,82.52 47.832,83.698 C46.175,86.057 44.46,88.383 42.632,90.63 C41.713,91.75 40.753,92.839 39.762,93.903 C38.754,94.953 37.736,95.997 36.62,96.95 C35.524,97.92 34.349,98.819 33.073,99.587 C32.742,99.774 32.453,99.969 32.088,100.148 L31.121,100.618 L29.188,101.557 C27.918,102.209 26.506,102.669 25.173,103.222 C23.816,103.725 22.439,104.147 21.072,104.595 L12.83,107.046 L12.749,106.81 C15.427,105.807 18.13,104.809 20.828,103.868 C22.158,103.351 23.499,102.859 24.799,102.295 L26.726,101.413 C27.37,101.129 28.014,100.841 28.64,100.482 L30.535,99.468 L31.482,98.96 C31.755,98.814 32.056,98.598 32.342,98.422 C33.492,97.666 34.57,96.775 35.581,95.806 C36.608,94.856 37.553,93.807 38.488,92.753 C39.409,91.684 40.296,90.582 41.159,89.458 C42.894,87.218 44.526,84.888 46.105,82.518 C46.897,81.335 47.67,80.135 48.435,78.936 C49.208,77.733 49.964,76.52 50.668,75.283 L54.987,67.903 C55.71,66.675 56.461,65.468 57.124,64.191 L59.172,60.408 L59.003,61.119 C58.881,58.912 59.168,56.589 60.127,54.481 C61.067,52.375 62.614,50.551 64.456,49.255 C66.284,47.93 68.358,47.037 70.489,46.5 C72.716,45.948 75.061,46.002 77.217,46.503 C78.3,46.756 79.349,47.119 80.231,47.414 L80.323,47.442 C80.319,47.441 80.398,47.463 80.324,47.444 L80.342,47.433 L80.408,47.397 C80.451,47.376 80.493,47.366 80.538,47.362 L81.238,47.266 L82.746,47.046 L88.838,46.096 L94.98,45.167 L96.511,44.974 C97.062,44.911 97.57,44.886 98.101,44.841 C99.15,44.737 100.205,44.713 101.261,44.703 C103.371,44.667 105.483,44.84 107.573,45.127 C109.663,45.433 111.727,45.898 113.745,46.51 C115.749,47.159 117.737,47.879 119.614,48.833 C121.493,49.775 123.321,50.818 125.04,52.016 C128.485,54.399 131.605,57.213 134.355,60.332 C135.731,61.891 137.027,63.516 138.229,65.207 C139.429,66.882 140.571,68.666 141.65,70.347 L141.523,70.231 C145.806,72.899 149.958,75.746 154.031,78.722 C156.056,80.227 158.044,81.786 159.922,83.502 C160.854,84.369 161.761,85.274 162.541,86.336 C162.733,86.61 162.912,86.877 163.081,87.197 L163.32,87.701 L163.464,88.149 C163.541,88.879 163.529,89.472 163.564,90.144 C163.637,91.475 163.564,92.685 163.571,93.961 C163.553,95.224 163.567,96.479 163.504,97.752 L163.362,101.564 C163.344,102.845 163.176,104.082 163.074,105.338 L162.9,107.217 C162.721,107.958 162.583,108.554 162.391,109.21 L161.732,111.045 L160.979,112.816 C159.939,115.158 158.759,117.393 157.491,119.62 L157.643,119.095 C157.107,120.785 156.543,122.487 155.949,124.172 L154.254,128.902 L154.072,129.408 L153.562,129.582 L150.484,130.627 L149.027,131.121 L149.009,129.591 L148.954,124.832 L150.045,125.906 C149.376,125.908 148.658,125.989 147.965,126.099 C147.618,126.157 147.279,126.245 146.936,126.315 L145.948,126.619 C145.647,126.756 145.323,126.883 145.037,127.019 C144.796,127.189 144.568,127.268 144.293,127.479 L143.867,127.858 L143.654,128.048 L143.601,128.096 C143.752,127.941 143.64,128.057 143.672,128.024 L143.667,128.03 L143.656,128.043 L143.634,128.068 L143.548,128.17 C143.321,128.433 143.086,128.721 142.848,129.018 C140.956,131.377 139.044,133.776 137.059,136.099 C135.059,138.414 132.986,140.676 130.755,142.803 C129.641,143.866 128.465,144.877 127.228,145.827 L126.253,146.494 L125.766,146.826 L125.234,147.111 C124.871,147.29 124.544,147.511 124.152,147.652 L122.961,148.048 L123.389,147.208 C123.656,147.837 123.958,148.457 124.179,149.098 L124.889,151.008 L125.244,151.962 C125.369,152.273 125.469,152.635 125.567,152.95 L126.166,154.916 L126.763,156.877 C126.93,157.536 127.072,158.2 127.228,158.861 L128.11,162.841 L127.871,162.901 L127.871,162.901 Z"></path>
          </g>
        </g>
      </g>
      </svg>