<?xml version="1.0" encoding="utf-8"?>
<!-- Generator: Adobe Illustrator 19.1.0, SVG Export Plug-In . SVG Version: 6.00 Build 0)  -->
<svg version="1.1" id="Layer_3" xmlns="http://www.w3.org/2000/svg" xmlns:xlink="http://www.w3.org/1999/xlink" x="0px" y="0px"
	 viewBox="0 0 614.1 591.2" style="enable-background:new 0 0 614.1 591.2;" xml:space="preserve">
<style type="text/css">
	.st0{fill:#000D20;}
</style>
<g>
	<path class="st0" d="M41,211.5c5.7-0.6,11.5-1.7,17.4-1.9c7-0.2,13.9,1.3,20.9,0.7c4.8-0.4,9.4-1.8,14.1-2.6
		c5.1-0.9,10.4-1.1,15.2,0.8c2.2,0.8,4.1,2.1,5.8,3.7c1.6,1.5,3,3.4,4.3,5.2c12,16.4,23.5,33.2,35.5,49.6
		c7.6,10.5,34.4,65.6,42.4,76.2c8,10.5,19.8,8,19.8,8s6.7,20.4,7.6,25.2c1,4.8,2.9,24.2,5.7,28.4c2.9,4.1,1.3,32.2,0.6,46.8
		c-0.6,14.7-10.5,14-22.6,25.8c-9.9,9.7,24.4,9.1,29.2,3.5c1.3-1.6,2.5-3.4,4.3-4.3c6.9-3,12.5,3.2,19.9-2.7
		c5.1-4.1,8.2-11,10.6-16.9c0.4-1.1,1.1-2.4,2.3-2.5c1.8-0.2,2.6,2.2,2.7,4.1c2.8,0,3.5-3.8,3.4-6.6c-0.7-12.5-1.5-25.1-2.4-37.6
		c-0.6-7.9-3.3-20.2-0.1-27.8c3.8-9.9-9.2-47.5,1.6-47.8c10.8-0.3,25.2,5.7,65,14c39.8,8.3,67.9-7.6,71.1-8
		c3.2-0.3,10.2-2.2,15.9,7.3c4.6,7.6,12.9,11.1,19.9,15.8c8.4,5.6,3.8,12.4,9.7,19c7.3-11.8,7.4-15.8,22-15.1c0,0-0.6,19.1-1.6,24.9
		c-1,5.7-8.6,38.2-15,47.5c-6.4,9.2-18.2,14.7-22.6,21.7c-4.5,7.1,16.8,4.5,18.9,4c9.5-2.2,18.8-6.7,24.2-15.1
		c4.6-7.3,5.4-16.2,6.9-24.6c2.1-12.1,5.9-23.9,11.1-35.1c2.9-6.1,6.2-12.1,8.1-18.6c1.9-6.5,2.2-13.8-0.8-19.8
		c4.8,9.4,15.8,14.5,19.8,25.4c4.5,12.1,9.9,22.6,13.4,41.7c3.5,19.1-6.7,37.3-10.8,42.7c-4.1,5.4-16.2,13.1-12.4,17.5
		c7,8.2,26.1,1.1,31.8-5.1c5.3-5.8,7.5-14.2,5.7-21.8c1.6,2.5,4.2,5.4,7,4.4c2.2-0.8,3-3.5,2.9-5.9c-1.5-27-9.8-54.6-9.2-81.5
		c0.3-14-20.1-53.8-17.2-70.4c2.9-16.6,22.3-87,22.3-87c5.4,15.3,3.8,96.6,1.9,119.2c-1.9,22.6-3.5,42.7,1,50.7
		c5.7,10.1,6,24,7.8,35.3c8.3-8.5,13.4-20.3,13.8-32.2c0.6-15.9-6.5-30.9-10.2-46.4c-6.6-28.2-2.5-58.4-0.9-87
		c4.5-81.3-17.5-82.5-26.8-90.8c-9.2-8.3-39.8-7-39.8-7s-165.7,14-198.2,3.2c-32.5-10.8-79.3-2.2-95.9-4.8
		c-16.6-2.5-77.4-28.4-81.3-30.3c-3.8-1.9-8-4.1-7.3-11.5c0.8-9.3-49.3-12.9-56.7-13.6c-7.9-0.8-37.1-0.1-18.9,9.8
		c6.2,3.4,15.4,5.4,22.4,5c-0.1-0.5-0.7-0.7-1.4-0.9c0,0-2.2,11.2-16.9,5.4c-14.7-5.7-28.7,3.5-28.7,3.5c0,10.2,23.9,14,23.9,14
		c-0.3,9.2-16.9,34.1-30.3,42.7c-13.4,8.6-10.5,12.4-10.5,12.4c1.4,1.9-0.2,7.7,2,10.7c2.2,3.1,5.8,4.5,9.2,5.8
		C29.4,212,35.2,212,41,211.5z M251.3,453.8c0,0-2.6-14.9-2.6-21c0-6.1,0.3-34.5,1.3-38.4c1-4,2.2-10.8,2.2-10.8s4.6,21.2,5.5,27.5
		c0.8,6.3-1.2,34.1-4.5,40.1C249.8,457.1,251.3,453.8,251.3,453.8z"/>
</g>
</svg>
