<svg id="Layer_6" data-name="Layer 6" xmlns="http://www.w3.org/2000/svg" viewBox="0 0 400 400"><defs><style>.cls-1,.cls-2{fill:#fff;}.cls-2{stroke:#fff;stroke-miterlimit:10;}</style></defs><title>final-icons-white-on-black new</title><path class="cls-1" d="M279.09,0.21L172.84,0c-10.18,0-18.45,8-18.45,17.91v9.43l81.12-.16c13.62,0,24.69,10.74,24.69,23.94V115a23.25,23.25,0,0,1-.7,5.56l10.84,11.57a3.19,3.19,0,0,0,3.42.79,3,3,0,0,0,2-2.82V99.86h3.33c10.18,0,18.45-8,18.45-17.91V18.12C297.54,8.24,289.26.21,279.09,0.21Z"/><path class="cls-1" d="M235.51,33.21l-106.24.21c-10.18,0-18.45,8-18.45,17.91v63.83c0,9.87,8.28,17.91,18.45,17.91h18.89v30.19a3,3,0,0,0,2,2.82,3.19,3.19,0,0,0,3.43-.79l30.2-32.23,51.74-.21c10.18,0,18.45-8,18.45-17.91V51.12C254,41.24,245.69,33.21,235.51,33.21ZM148.16,96.57A12.08,12.08,0,1,1,160.6,84.5,12.28,12.28,0,0,1,148.16,96.57Zm34.23,0A12.08,12.08,0,1,1,194.84,84.5,12.28,12.28,0,0,1,182.39,96.57Zm34.23,0A12.08,12.08,0,1,1,229.07,84.5,12.28,12.28,0,0,1,216.62,96.57Z"/><path class="cls-2" d="M386.16,307.55c-4.26-9.2-26.52-17.39-34.19-20-11.92-25.31-4.92-62.54-4.92-62.54a180.33,180.33,0,0,1-5.34,17.84c-2.11,16.43-15.88,29.95-15.88,29.95a29.68,29.68,0,0,0,1.39,11.35c-21.31,33.43-38.75,15.95-47.36,2.3a28.91,28.91,0,0,0,2.34-13.66S268.4,259.3,266.3,242.87a21.17,21.17,0,0,1-2.16-4.14c-1.53-.92-7-4.47-8.06-10.69a12.68,12.68,0,0,1-.09-3.54,3.82,3.82,0,0,1,2-2.51c2-.88,5.27.53,7.28,4,40.48,2.23,61.68-15.77,62.32-16.34a28,28,0,0,0,15.9,17.87s0.44-4.46,1.73-4.88a3.89,3.89,0,0,1,1.87,2.37s3.07-28.53-10.3-39.19l0.06-.15c-27.94-23.92-59.59-5.72-59.59-5.72-17.54,11-18.1,31.52-17.33,40.88-2.9-.41-6,0.48-5.16,6.77,0,0,3.24,11.41,8,11.46,1.05,11.22,1.39,31.28-6.59,48.38-9.19,3.82-18.41,6.53-18.41,6.53-10,3.71-14.18,9.29-14.18,9.29C208.76,324.47,207,371.69,207,371.69c0.2,10.78,5,11.9,5,11.9,33.94,14.68,87.09,17.29,87.09,17.29,54.62,1.12,94.35-15.07,94.35-15.07,5.77-3.54,6-6.31,6-6.31C403.4,345.66,386.16,307.55,386.16,307.55Z"/><path class="cls-2" d="M180.75,306.64a115.1,115.1,0,0,0-15.82-12.47,120,120,0,0,0-40.58-16.81,7.93,7.93,0,0,1-1.21-4.93c0.35-2.91,2.61-4.51,4.59-6.57,2.64-2.75,4-6.1,6.77-12.67a105.06,105.06,0,0,1,4.61-10.3c1.08-2,1-1.71,1.44-2.6a23.44,23.44,0,0,0,1.26-15.18s0.13,1,0,3.84c-0.18,3.84-.29,6.13-1.44,8.63a14.28,14.28,0,0,1-3.23,4.45,67.81,67.81,0,0,1-16.71,29.88,29.68,29.68,0,0,0,1.39,11.35c-21.31,33.43-38.75,15.95-47.36,2.3a20.74,20.74,0,0,0,1.31-13.13,57.88,57.88,0,0,1-7.49-8.91,63.66,63.66,0,0,1-6.75-13.4c-0.2-.59-0.69-2.11-1.17-3.62-0.86-2.7-1.52-4.91-1.93-6.32a1.25,1.25,0,0,0,.88-1.65,1.29,1.29,0,0,0-1.58-.35,18.17,18.17,0,0,1-5.1-7.31,17.46,17.46,0,0,1-1.09-6.13,3.42,3.42,0,0,1,6.81-.24c10.09,1.2,28.24,1.85,47.61-6.52a85.88,85.88,0,0,0,16.22-9.22A28,28,0,0,0,138,226.64s0.44-4.46,1.73-4.88a3.89,3.89,0,0,1,1.87,2.37s3.07-28.53-10.3-39.19l0.06-.15c-27.94-23.92-59.59-5.72-59.59-5.72a39.78,39.78,0,0,0-15.53,21A37.89,37.89,0,0,0,56,220.49a4.94,4.94,0,0,0-4.74,1.41,4.6,4.6,0,0,0-1,4.72,22.38,22.38,0,0,0,1.82,6.13,23,23,0,0,0,4.62,6.6,12.13,12.13,0,0,1,1.58,2.53,35.46,35.46,0,0,1,1.3,4.15c0.34,1.12.37,1.15,0.79,2.55,0.2,0.65.47,1.54,0.79,2.67,0.51,1.79.54,2,.87,3.07,0,0,.38,1.34.88,2.62a25.09,25.09,0,0,0,4.59,8.21c2.17,2.46,3.82,3.18,5.32,6.1,0.87,1.69,2.08,4.06,1,6.1-1.33,2.44-5,2.57-5.32,2.58L32.27,293.07c-10,3.71-14.18,9.29-14.18,9.29C3.35,323.55,1.6,370.77,1.6,370.77c0.2,10.78,5,11.9,5,11.9C40.51,397.35,93.66,400,93.66,400c54.62,1.12,94.35-15.07,94.35-15.07,5.77-3.54,6-6.31,6-6.31C198,344.74,180.75,306.64,180.75,306.64Z"/></svg>