<?xml version="1.0" encoding="utf-8"?>
<!-- Generator: Adobe Illustrator 19.1.0, SVG Export Plug-In . SVG Version: 6.00 Build 0)  -->
<svg version="1.1" xmlns="http://www.w3.org/2000/svg" xmlns:xlink="http://www.w3.org/1999/xlink" x="0px" y="0px"
	 viewBox="0 0 614.1 591.2" style="enable-background:new 0 0 614.1 591.2;" xml:space="preserve">
<style type="text/css">
	.st0{fill:none;stroke:#231F20;stroke-width:10;stroke-miterlimit:10;}
	.st1{fill:none;stroke:#231F20;stroke-width:6;stroke-linecap:round;stroke-linejoin:round;stroke-miterlimit:10;}
</style>
<g id="Layer_1">
	<g>
		<g id="XMLID_1_">
			<g>
				<path d="M561.7,361.2c14,5.1,18.7,16.6,9.8,28.4c-8.3,11-17.8,21.4-28.2,30.2c-20.4,17.3-41.2,34.3-63,49.7
					c-17.1,12.1-35.9,21.9-54.1,32.6c-13.2,7.8-26.6,15.3-39.9,22.9c-17.5,10-35.8,16-56.2,10.6c-6.9-1.8-13.8-4.2-20.4-7.1
					c-30.2-13.6-61.6-23.9-93.6-32.7c-16.2-4.4-32.6-8.5-49.2-10.9c-31.1-4.4-62.4-3-93.6-1.7c-3.1,0.1-6.3,0.3-9.4,0.4
					c-8.9,0.2-12.3-1.2-15.1-9.8c-3-9.3-5.4-18.9-6.2-28.6c-1.8-22.7-1.4-45.4,4.9-67.7c4-14.2,6.3-16.2,21.1-16.8
					c14.2-0.5,28.6,0.5,42.7-1.2c16.1-2,31.9-6.1,47.7-9.7c16.7-3.9,33.1-9.1,50.7-8.4c14.4,0.6,28.4,2.8,41.5,8.6
					c21.9,9.8,44.8,11.4,68.4,10.2c23.8-1.1,47.7-1.5,71.5-1c10.6,0.2,21.3,2.4,30.6,8.5c13.5,8.8,15.8,25.3,4.5,37.1
					c-9.9,10.3-22.7,15.6-36.2,19.4c-23.5,6.7-47.3,7.3-71.5,5.2c-17.4-1.5-34.6,0.3-49.9,4c13.6,2.5,28.9,4,43.5,8.3
					c38.1,11.2,74.2,5.5,109.7-9.9c22.9-10,42.4-25.3,62.6-39.6c14.9-10.6,30.1-20.8,47-28C541.3,360.5,551.1,357.4,561.7,361.2z"/>
				<path d="M532.5,347.6c0.6,0.7,1,1.5,1.7,2.7c-31.4,9.2-56.6,29.1-82.7,45.6c-1.1-8-2.3-15.7-3.1-23.4c-0.1-1,1.2-2.7,2.3-3.3
					c17.3-9.1,34.4-18.7,52-27.1C514.4,336.6,525.6,339.4,532.5,347.6z"/>
				<path d="M494.6,331.3c-4.4,2.3-8.1,4.1-11.9,6c-13.5,6.8-27,13.6-40.5,20.3c-1.4,0.7-3.5,1.4-4.5,0.8c-5-2.9-9.8-6.2-15.4-9.8
					c10.5-5.2,20.6-10.2,30.8-15.1c5-2.4,10-4.7,15.2-6.5C477.4,323.6,485.9,325.3,494.6,331.3z"/>
			</g>
			<g>
				<path class="st0" d="M268.8,433.7c13.6,2.5,28.9,4,43.5,8.3c38.1,11.2,74.2,5.5,109.7-9.9c22.9-10,42.4-25.3,62.6-39.6
					c14.9-10.6,30.1-20.8,47-28c9.7-4.1,19.5-7.2,30.1-3.3c14,5.1,18.7,16.6,9.8,28.4c-8.3,11-17.8,21.4-28.2,30.2
					c-20.4,17.3-41.2,34.3-63,49.7c-17.1,12.1-35.9,21.9-54.1,32.6c-13.2,7.8-26.6,15.3-39.9,22.9c-17.5,10-35.8,16-56.2,10.6
					c-6.9-1.8-13.8-4.2-20.4-7.1c-30.2-13.6-61.6-23.9-93.6-32.7c-16.2-4.4-32.6-8.5-49.2-10.9c-31.1-4.4-62.4-3-93.6-1.7
					c-3.1,0.1-6.3,0.3-9.4,0.4c-8.9,0.2-12.3-1.2-15.1-9.8c-3-9.3-5.4-18.9-6.2-28.6c-1.8-22.7-1.4-45.4,4.9-67.7
					c4-14.2,6.3-16.2,21.1-16.8c14.2-0.5,28.6,0.5,42.7-1.2c16.1-2,31.9-6.1,47.7-9.7c16.7-3.9,33.1-9.1,50.7-8.4
					c14.4,0.6,28.4,2.8,41.5,8.6c21.9,9.8,44.8,11.4,68.4,10.2c23.8-1.1,47.7-1.5,71.5-1c10.6,0.2,21.3,2.4,30.6,8.5
					c13.5,8.8,15.8,25.3,4.5,37.1c-9.9,10.3-22.7,15.6-36.2,19.4c-23.5,6.7-47.3,7.3-71.5,5.2C301.3,428.2,284.1,429.9,268.8,433.7z
					"/>
				<path class="st0" d="M534.2,350.3c-31.4,9.2-56.6,29.1-82.7,45.6c-1.1-8-2.3-15.7-3.1-23.4c-0.1-1,1.2-2.7,2.3-3.3
					c17.3-9.1,34.4-18.7,52-27.1c11.7-5.6,22.9-2.8,29.8,5.5C533.1,348.3,533.5,349.1,534.2,350.3z"/>
				<path class="st0" d="M422.2,348.6c10.5-5.2,20.6-10.2,30.8-15.1c5-2.4,10-4.7,15.2-6.5c9.1-3.3,17.6-1.7,26.3,4.4
					c-4.4,2.3-8.1,4.1-11.9,6c-13.5,6.8-27,13.6-40.5,20.3c-1.4,0.7-3.5,1.4-4.5,0.8C432.6,355.6,427.8,352.2,422.2,348.6z"/>
			</g>
		</g>
	</g>
</g>
<g id="Layer_2">
	<g>
		<g id="XMLID_2_">
			<g>
				<path d="M346.9,92.6c2.4,10.9-0.3,27.4-10.6,38.1c-1.1,1.1-6,6-13.6,9.3c-2.2,0.9-4.7,1.7-7.3,2.3c-4.2,0.8-8.7,0.9-10.9,0.4v-6
					c2.9-1.6,12.6-1.9,20.5-7c2.8-1.8,4.5-3.6,5.5-4.6c8.9-9.2,9.4-21.3,8.9-27.2c-5.5,0.8-16.5,3.7-25.6,13.1
					c-7.1,7.3-8.7,14.4-9.3,19c0,0,0,0,0,0v6.6c-0.5,0.3-0.8,0.6-0.8,1c0,0.5,0.3,1.2,0,2.5c-0.2,1.1-0.6,1.4-0.6,1.7
					c0.1,0.3,0.6,0.6,1.4,0.8v14c1.1-1.4,2.2-2.7,3.5-4c5-5.2,10.4-8.7,15.4-11c2.6-1.2,5.2-2.2,7.5-2.9c6.7-2,11.7-2.1,12.1-2.1
					c1.9,0,3.5,1.3,4,3.2c0.2,0.9,4.6,22.3-10.6,38.1c-8.8,9.1-18.3,12.3-23.7,12.6c-3.2,0.2-6.5-0.5-8.1-1.2v-3.5
					c3.2-1.6,13.8-4.5,20.5-8.9c0,0,2.8-1.8,5.5-4.6c8.9-9.2,9.4-21.3,8.9-27.2c-5.5,0.8-16.5,3.7-25.6,13.1
					c-7.1,7.3-8.7,14.3-9.3,19c0,0,0,0,0,0.1v8.5c-0.6,0.3-0.9,0.5-1,0.8c-0.1,0.5-0.1,1-0.1,1s0,0.5,0.1,1c0.1,0.2,0.4,0.5,1,0.7
					v15.6c1.1-1.4,2.2-2.7,3.5-4c15.3-15.8,34.2-16,35-16h0c1.9,0,3.5,1.3,4,3.2c2.4,10.9-0.7,27.3-10.6,38.1
					c0,0-11.1,12.1-25.8,12.8c-2,0.1-4.6-0.2-6-1v-4.3c3.1-1.8,14-4.4,20.5-8.5c2.6-1.7,4.2-3.4,5.5-4.6c8.9-9.2,9.4-21.3,8.9-27.2
					c-5.5,0.8-16.5,3.7-25.6,13.1c-7.1,7.3-8.7,14.4-9.3,19c0,0,0,0,0,0.1v8.1c-0.4,0.2-0.6,0.4-0.7,0.6c-0.4,0.6-0.5,1.2-0.5,1.2
					s-0.1,0.8,0.2,1.6c0.1,0.3,0.5,0.6,1,0.9v59.8c0,2.1-1.6,3.8-3.7,4c-2.1-0.2-3.7-1.9-3.7-4v-59.7c0.2-0.2,0.3-0.3,0.4-0.5
					c0-0.1,0.2-0.7,0.2-1.4c0,0,0.1-1,0-1.8c0-0.3-0.2-0.5-0.6-0.8v-8.1c0,0,0,0,0-0.1c-0.6-4.6-2.2-11.6-9.3-19
					c-9.2-9.5-20.1-12.3-25.6-13.1c-0.4,5.9,0,18,8.9,27.2c2.7,2.8,5.5,4.6,5.5,4.6c7.5,4.9,17.9,6.7,20.5,8.5v4.4
					c-1.2,0.9-4.9,1.2-8.1,0.7c-13.8-1.9-23.7-12.6-23.7-12.6c-15.2-15.7-10.8-37.2-10.6-38.1c0.2-0.9,0.7-1.7,1.4-2.3
					c0.7-0.6,1.6-0.9,2.5-0.9c0.8,0,19.7,0.2,35,16c1.3,1.3,2.4,2.6,3.5,4v-15.5c0.2-0.1,0.3-0.3,0.4-0.5c0-0.1,0-0.2,0-1.6
					c0-0.9,0-1.2,0-1.2c0-0.2-0.1-0.4-0.4-0.6v-8.3c0,0,0,0,0-0.1c-0.6-4.6-2.2-11.6-9.3-19c-9.2-9.5-20.1-12.3-25.6-13.1
					c-0.4,5.9,0,18,8.9,27.2c2.7,2.8,5.5,4.6,5.5,4.6c7.6,4.9,18.4,7,20.5,8.7v3.9c-1.1,0.8-4.8,1.3-8.1,1
					c-13.2-1.2-23.7-12.6-23.7-12.6c-15.2-15.7-10.8-37.2-10.6-38.1c0.2-0.9,0.7-1.7,1.4-2.3c0.7-0.6,1.6-0.9,2.5-0.9
					c0.5,0,9.7,0.1,20.3,5.3c4.8,2.4,10,5.8,14.7,10.7c1.3,1.3,2.4,2.6,3.5,4v-14c0.7-0.3,1.2-0.8,1.5-1.3c0.1-0.3,0.8-1.9,0.2-3.5
					c0,0-0.2-0.6-0.8-1.1c-0.2-0.2-0.5-0.5-0.9-0.7v-6c0,0,0,0,0,0c-0.6-4.6-2.2-11.7-9.3-19c-9.2-9.5-20.1-12.3-25.6-13.1
					c-0.4,5.9,0,18,8.9,27.2c1.7,1.8,3.1,3.3,5.5,4.6c6.5,3.7,16.8,4.4,20.5,6.3v6.6c-2.6,1.2-7.4,0.7-8.1,0.7
					c-2.3-0.2-5.6-0.9-9.5-2.6c-4.3-1.9-9.3-5-14.2-10c-15.2-15.7-10.8-37.2-10.6-38.1c0.2-0.9,0.7-1.7,1.4-2.3
					c0.7-0.6,1.6-0.9,2.5-0.9c0.8,0,19.7,0.2,35,16c3,3.1,5.3,6.2,7.1,9.7c1.8-3.4,4.2-6.6,7.1-9.7c7.6-7.9,16.2-11.9,22.9-13.9
					c6.7-2,11.7-2.1,12.1-2.1C344.8,89.4,346.5,90.7,346.9,92.6z"/>
				<path d="M339.4,97.8c0.4,5.9-0.1,18-8.9,27.2c-1,1-2.7,2.8-5.5,4.6c-7.9,5.1-17.7,5.4-20.5,7V130c0,0,0,0,0,0
					c0.6-4.6,2.2-11.7,9.3-19C322.9,101.5,333.9,98.7,339.4,97.8z"/>
				<path d="M339.4,145.1c0.4,5.9-0.1,18-8.9,27.2c-2.7,2.8-5.5,4.6-5.5,4.6c-6.7,4.4-17.3,7.2-20.5,8.9v-8.5c0,0,0,0,0-0.1
					c0.6-4.6,2.2-11.6,9.3-19C322.9,148.7,333.9,145.9,339.4,145.1z"/>
				<path d="M339.4,193.4c0.4,5.9-0.1,18-8.9,27.2c-1.2,1.2-2.8,2.9-5.5,4.6c-6.5,4.1-17.5,6.7-20.5,8.5v-8.1c0,0,0,0,0-0.1
					c0.6-4.6,2.2-11.7,9.3-19C322.9,197.1,333.9,194.3,339.4,193.4z"/>
				<path d="M317.7,77.2c0,7.8,0.2,13.4-3.8,17.7c-4.7,5.1-12.8,6.2-13.5,4.7c0.1-0.2,0.1-0.4,0-0.6c0.6-1.2,3.7-3.3,6.2-7.6
					c3-5.2,3.1-10.3,3.1-14.3c0-12.6-5.4-21.9-8.8-26.6c-3.4,4.7-8.8,14-8.8,26.6c0,3.8,0.2,8.9,3.1,14.3c2.2,4.2,4.9,6.3,5.3,7.6
					c-0.1,0.2-0.1,0.4,0,0.6c-0.9,1.4-8.2,0-12.6-4.7c-4.1-4.4-3.8-10.1-3.8-17.7c0-21.9,13.5-35.3,14-35.8c0.8-0.8,1.8-1.1,2.8-1.1
					s2,0.4,2.8,1.1C304.2,42,317.7,55.3,317.7,77.2z"/>
				<path d="M309.6,77.2c0,3.9-0.1,9.1-3.1,14.3c-2.5,4.3-5.6,6.4-6.2,7.6c-0.4-1.2-3.1-3.4-5.3-7.6c-2.9-5.4-3.1-10.5-3.1-14.3
					c0-12.6,5.4-21.9,8.8-26.6C304.2,55.3,309.6,64.7,309.6,77.2z"/>
				<path d="M304.5,233.7v4.3c-0.5-0.2-0.8-0.5-1-0.9c-0.3-0.8-0.2-1.6-0.2-1.6s0.1-0.6,0.5-1.2
					C303.9,234.1,304.1,233.9,304.5,233.7z"/>
				<path d="M304.5,185.7v3.5c-0.6-0.3-0.9-0.5-1-0.7c-0.1-0.5-0.1-1-0.1-1s0-0.5,0.1-1C303.6,186.3,303.9,186,304.5,185.7z"/>
				<path d="M304.5,136.6v6c-0.8-0.2-1.3-0.4-1.4-0.8c-0.1-0.3,0.3-0.6,0.6-1.7c0.3-1.3,0-2,0-2.5
					C303.7,137.2,304,136.9,304.5,136.6z"/>
				<path d="M300.4,99.1c0.1,0.2,0.1,0.4,0,0.6C300.2,99.5,300.2,99.3,300.4,99.1z"/>
				<path d="M298.8,137.8c0.6,1.6-0.1,3.2-0.2,3.5c-0.3,0.6-0.8,1-1.5,1.3V136c0.4,0.2,0.7,0.4,0.9,0.7
					C298.6,137.2,298.8,137.8,298.8,137.8z"/>
				<path d="M297.7,234.5c0.1,0.8,0,1.8,0,1.8c-0.1,0.7-0.2,1.2-0.2,1.4c0,0.2-0.2,0.3-0.4,0.5v-4.4
					C297.5,234,297.7,234.2,297.7,234.5z"/>
				<path d="M297.5,187.4c0,1.4,0,1.5,0,1.6c0,0.2-0.2,0.3-0.4,0.5v-3.9c0.2,0.2,0.4,0.4,0.4,0.6
					C297.5,186.2,297.5,186.5,297.5,187.4z"/>
				<path d="M297.1,225.6v8.1c-2.6-1.8-13-3.6-20.5-8.5c0,0-2.8-1.9-5.5-4.6c-8.9-9.2-9.3-21.3-8.9-27.2c5.5,0.8,16.5,3.7,25.6,13.1
					C295,213.9,296.5,220.9,297.1,225.6C297.1,225.6,297.1,225.6,297.1,225.6z"/>
				<path d="M297.1,177.3v8.3c-2.1-1.7-12.9-3.8-20.5-8.7c0,0-2.8-1.9-5.5-4.6c-8.9-9.2-9.3-21.3-8.9-27.2
					c5.5,0.8,16.5,3.7,25.6,13.1C295,165.6,296.5,172.6,297.1,177.3C297.1,177.2,297.1,177.2,297.1,177.3z"/>
				<path d="M297.1,130v6c-3.7-1.9-14-2.6-20.5-6.3c-2.4-1.4-3.8-2.9-5.5-4.6c-8.9-9.2-9.4-21.3-8.9-27.2
					c5.5,0.8,16.5,3.7,25.6,13.1C295,118.3,296.5,125.3,297.1,130C297.1,130,297.1,130,297.1,130z"/>
			</g>
			<g>
			</g>
		</g>
	</g>
</g>
<g id="Layer_3">
	<path class="st1" d="M198.9,327.4c31.2-17.1,67.7-26.4,104.2-26.6c37.4-0.2,74.7,9,106.7,26.4"/>
</g>
</svg>
