<?xml version="1.0" encoding="utf-8"?>
<!-- Generator: Adobe Illustrator 19.1.0, SVG Export Plug-In . SVG Version: 6.00 Build 0)  -->
<svg version="1.1" id="Layer_1" xmlns="http://www.w3.org/2000/svg" xmlns:xlink="http://www.w3.org/1999/xlink" x="0px" y="0px"
	 viewBox="0 0 200 200" style="enable-background:new 0 0 200 200;" xml:space="preserve">
<path d="M40.6,120.7c2-4.7,6.5-5.3,10.6-5.3c10.1,0.1,20.3,0.7,30.4,1.3c4.4,0.2,8.8,0.7,13.2,1.1c0.1-0.4,0.1-0.7,0.2-1.1
	c-2.1-0.6-4.2-1.5-6.3-1.8c-9.4-1.4-18.9-2.5-28.3-3.8c-4.2-0.6-8.2-1.8-11.5-4.6c-4.2-3.6-3.6-8.1,1.7-9.8c3.2-1,6.8-1.2,10.2-1
	c4.5,0.3,9,1.2,13.5,2c0.8,0.1,1.7,0.8,2.2,1.5c6.9,11.3,19.3,12.9,28.9,3.8c0.9-0.9,2.7-1.1,4.1-1.2c2.6-0.2,5.2,0.1,7.7-0.3
	c2.9-0.5,4.2-2.3,4.4-5.2c0.3-4.6-1.7-8.6-3.4-12.8c-1.2-3.2-2-6.6-2.5-9.9c-0.2-1.4,0.4-3,1.1-4.3c1.2-2.6,3.3-4.2,6.3-4.2
	c2.9,0,4.2,2.2,4.9,4.6c3.1,9.7,8.5,18.1,14.9,25.7c3.9,4.6,8.5,8.6,12.9,12.8c1.3,1.3,1.9,2.6,2,4.4c0.2,12,0.5,23.9,0.8,35.9
	c0,0.9-0.1,1.8-0.1,2.1c-4.1,1.7-7.7,3.6-11.5,4.8c-6.4,2-12.9,3.9-19.5,5.2c-17.3,3.3-34.8,2.5-52.3,3.4c-4.1,0.2-8.2,0.4-12.3,0.5
	c-2.3,0-4.6-0.4-5.2-3.1c-0.6-2.4,0.5-4.4,3.6-5.5c2.6-0.9,5.3-1.2,8.1-1.6c7.7-1,15.4-1.8,23.1-2.8c1.1-0.1,2.2-0.7,3.3-1
	c0-0.3,0.1-0.6,0.1-0.9c-1.7-0.4-3.3-1.1-5-1.1c-10.3,0-20.7,0.2-31,0.2c-2.5,0-5,0.2-7.5-0.1c-2.4-0.2-4.1-1.5-4.6-4.2
	c-0.4-2.7,0.3-5.1,2.9-6c3.9-1.3,8-2.4,12.1-2.8c7.9-0.7,15.9-0.8,23.8-1.3c3-0.2,6-0.9,9-1.4c0-0.4,0-0.9-0.1-1.3
	c-2.7-0.3-5.3-0.8-8-0.9c-12.8-0.4-25.5-0.8-38.3-1.1c-3.8-0.1-6.8-1.2-8.4-4.9C40.6,123.2,40.6,122,40.6,120.7z"/>
<path d="M92.6,34.4c1.4,2.3,2.7,4.7,4.2,7c1.1,1.6,2.4,3.1,3.5,4.7c3,4.7,2.4,10.1-1.4,13.3c-3.7,3.2-9.4,3.3-13,0.2
	c-4.1-3.6-4.9-8.9-1.8-13.7c1.6-2.5,3.6-4.6,5.2-7.1c0.9-1.4,1.5-3,2.2-4.5C91.8,34.4,92.2,34.4,92.6,34.4z"/>
<path d="M91.9,66.6c2.1,2.9,4.4,5.9,6.6,8.9c2.5,3.3,4.7,6.7,3.2,11.2c-1.8,5.5-7.8,8.4-13.2,6.3c-5.4-2.2-7.9-8.5-5.2-13.7
	c1.1-2.2,2.7-4.1,4.1-6.2C89,70.9,90.5,68.6,91.9,66.6z"/>
</svg>
