<?xml version="1.0" encoding="utf-8"?>
<!-- Generator: Adobe Illustrator 21.0.2, SVG Export Plug-In . SVG Version: 6.00 Build 0)  -->
<svg version="1.1" baseProfile="tiny" id="Layer_1" xmlns="http://www.w3.org/2000/svg" xmlns:xlink="http://www.w3.org/1999/xlink"
	 x="0px" y="0px" viewBox="0 0 400 400" xml:space="preserve">
<g>
	<g>
		<path fill="#FFFFFF" d="M198.6,63.8h-21.8v21.8h21.8V63.8z M187.7,103.9c2.7,0,5.4,0.2,7.9,0.6V92.2h-15.8v12.3
			C182.3,104.1,185,103.9,187.7,103.9z M131,338.4c0,4.7,3.8,8.5,8.4,8.5H236c4.7,0,8.4-3.8,8.4-8.5v-38.4H131V338.4z M202.2,112.8
			c-1.1-0.3-2.2-0.7-3.3-1s-2.2-0.5-3.3-0.7c-2.6-0.4-5.2-0.7-7.9-0.7c-2.7,0-5.4,0.3-7.9,0.7c-1.1,0.2-2.2,0.4-3.3,0.7
			c-1.1,0.3-2.2,0.6-3.3,1c-9.8,3.2-18.2,9.7-24,18.1h76.9C220.4,122.5,211.9,116.1,202.2,112.8z M237.2,137.6
			c-0.4-0.1-0.8-0.1-1.2-0.1h-96.5c-0.4,0-0.8,0-1.2,0.1c-4.1,0.6-7.2,4.1-7.2,8.4v38.4h113.4V146
			C244.4,141.7,241.2,138.2,237.2,137.6z"/>
	</g>
</g>
<rect x="237.6" y="184.3" transform="matrix(-1 -4.675650e-11 4.675650e-11 -1 481.9747 484.465)" fill="#FFFFFF" width="6.8" height="115.8"/>
<rect x="131.1" y="184.3" transform="matrix(-1 -4.197455e-11 4.197455e-11 -1 268.9607 484.3467)" fill="#FFFFFF" width="6.8" height="115.8"/>
<g>
	<path fill="#FFFFFF" d="M232.2,263l-36.6-63.3c-1.6-2.8-4.5-4.5-7.7-4.5s-6.1,1.7-7.7,4.5L143.6,263c-1.6,2.8-1.6,6.1,0,8.9
		c1.6,2.8,4.5,4.5,7.7,4.5h73.1c3.2,0,6.1-1.7,7.7-4.5C233.8,269.2,233.8,265.8,232.2,263z M187.9,266.1c-3.2,0-5.8-2.6-5.8-5.8
		c0-3.2,2.6-5.8,5.8-5.8c3.2,0,5.8,2.6,5.8,5.8C193.7,263.5,191.1,266.1,187.9,266.1z M193.7,241.3c0,3.2-2.6,5.9-5.9,5.9
		s-5.9-2.6-5.9-5.9v-26.9c0-1.5,1.2-2.8,2.8-2.8h6.2c1.5,0,2.8,1.2,2.8,2.8L193.7,241.3L193.7,241.3z"/>
</g>
<polygon fill="#FFFFFF" points="204.2,74.3 312.3,47.7 312.3,110.7 "/>
<polygon fill="none" stroke="#FFFFFF" stroke-width="6" stroke-linecap="round" stroke-linejoin="round" stroke-miterlimit="10" points="
	138.2,17 339.7,17 339.7,373.2 51.8,373.2 51.8,105.5 "/>
<polygon fill="none" stroke="#FFFFFF" stroke-width="6" stroke-linecap="round" stroke-linejoin="round" stroke-miterlimit="10" points="
	51.8,105.5 138.2,105.4 138.2,17 "/>
</svg>
