<?xml version="1.0" encoding="utf-8"?>
<!-- Generator: Adobe Illustrator 21.0.2, SVG Export Plug-In . SVG Version: 6.00 Build 0)  -->
<svg version="1.1" baseProfile="tiny" id="Layer_1" xmlns="http://www.w3.org/2000/svg" xmlns:xlink="http://www.w3.org/1999/xlink"
	 x="0px" y="0px" viewBox="0 0 400 400" xml:space="preserve">
<path stroke="#FFFFFF" stroke-linecap="round" stroke-linejoin="round" stroke-miterlimit="10" d="M136.9,118.7"/>
<g>
	<g>
		<path fill="#FFFFFF" stroke="#FFFFFF" stroke-miterlimit="10" d="M132.7,118c-2.7-2.6-6-5.5-10-8.1c-9.6-6.5-18.9-9.5-25.7-11
			c-0.4-0.8-0.9-1.9-0.8-3.2c0.2-1.9,1.7-2.9,2.9-4.3c1.7-1.8,2.5-4,4.3-8.3c0.9-2.1,1.4-3.8,2.9-6.7c0.7-1.3,0.6-1.1,0.9-1.7
			c2.2-4.7,0.9-9.9,0.8-9.9c0,0,0.1,0.7,0,2.5c-0.1,2.5-0.2,4-0.9,5.6c-0.3,0.7-0.9,1.8-2,2.9c-0.9,3.7-2.7,8.6-6.1,13.7
			c-1.5,2.3-3,4.2-4.5,5.7c-0.2,2.9,0.2,5.3,0.9,7.4c-13.5,21.8-24.5,10.4-30,1.5c0.5-1.1,1-2.7,1.1-4.7c0.1-1.5-0.1-2.9-0.3-3.8
			c-2.1-2.1-3.7-4.2-4.7-5.8c0,0-2.8-4.3-4.3-8.7c-0.1-0.4-0.4-1.4-0.7-2.4c-0.5-1.8-1-3.2-1.2-4.1c0.5-0.2,0.7-0.8,0.6-1.1
			c-0.1-0.3-0.6-0.4-1-0.2c-0.8-0.8-2.3-2.3-3.2-4.8c-0.6-1.6-0.7-3-0.7-4c0.1-1.1,0.9-2,2-2.1c1.1-0.1,2.2,0.8,2.3,1.9
			c6.4,0.8,17.9,1.2,30.1-4.2c4.1-1.8,7.5-4,10.3-6c0.4,1.4,2.6,8.5,10.1,11.7c0,0,0.3-2.9,1.1-3.2c0,0,0.9,0.5,1.2,1.5
			c0,0,1.9-18.6-6.5-25.6l0-0.1C83.7,23,63.7,34.8,63.7,34.8c-1.8,1.3-7.5,5.7-9.8,13.7c-1.7,5.9-0.8,11-0.2,13.3
			c-1.1-0.3-2.2,0.1-3,0.9c-0.8,0.8-1,2-0.6,3.1c0.1,1.1,0.5,2.5,1.2,4c0.9,2,2.1,3.4,2.9,4.3c0.5,0.7,0.8,1.3,1,1.7
			c0.3,0.6,0.3,0.8,0.8,2.7c0.2,0.7,0.2,0.8,0.5,1.7c0.1,0.4,0.3,1,0.5,1.7c0.3,1.2,0.3,1.3,0.5,2c0,0,0.2,0.9,0.6,1.7
			c0.6,1.7,1.3,3.5,2.9,5.4c1.4,1.6,2.4,2.1,3.4,4c0.5,1.1,1.3,2.6,0.6,4c-0.8,1.6-3.2,1.7-3.4,1.7c-7.6,2.9-15.3,5.7-22.9,8.6
			c-6.3,2.4-9,6.1-9,6.1c-9.3,13.8-10.4,44.6-10.4,44.6c0.1,7,3.1,7.8,3.1,7.8c21.5,9.6,55.1,11.3,55.1,11.3
			c34.6,0.7,59.7-9.8,59.7-9.8c3.6-2.3,3.8-4.1,3.8-4.1C143.6,142.9,132.7,118,132.7,118z"/>
	</g>
</g>
<path d="M113.6,41.8"/>
<line x1="362" y1="225.7" x2="361.9" y2="225.7"/>
<g>
	<g>
		<path fill="#FFFFFF" stroke="#FFFFFF" stroke-miterlimit="10" d="M367.8,299.5c-3.1-7-19.5-13.2-25.1-15.1
			c-8.7-19.2-3.6-47.3-3.6-47.3c-1.6,6.9-3.9,13.5-3.9,13.5c-1.6,12.4-11.7,22.7-11.7,22.7c-0.2,3.3,0.2,6.2,1,8.6
			c-15.6,25.3-28.4,12.1-34.8,1.7c1.2-2.8,1.9-6.2,1.7-10.3c0,0-10.1-10.2-11.7-22.7c0,0-0.7-1-1.6-3.1c-1.1-0.7-5.1-3.4-5.9-8.1
			c-0.2-1-0.2-1.9-0.1-2.7c0.4-1.4,1.2-1.8,1.4-1.9c1.5-0.7,3.9,0.4,5.3,3.1c29.7,1.7,45.3-11.9,45.8-12.4c0.4,1.6,3,9.8,11.7,13.5
			c0,0,0.3-3.4,1.3-3.7c0,0,1.1,0.5,1.4,1.8c0,0,2.3-21.6-7.6-29.7l0-0.1c-20.5-18.1-43.7-4.3-43.7-4.3
			c-12.9,8.3-13.3,23.9-12.7,30.9c-2.1-0.3-4.4,0.4-3.8,5.1c0,0,2.4,8.6,5.8,8.7c0.8,8.5,1,23.7-4.8,36.6
			c-6.7,2.9-13.5,4.9-13.5,4.9c-7.3,2.8-10.4,7-10.4,7c-10.8,16-12.1,51.8-12.1,51.8c0.1,8.2,3.6,9,3.6,9
			c24.9,11.1,63.9,13.1,63.9,13.1c40.1,0.8,69.3-11.4,69.3-11.4c4.2-2.7,4.4-4.8,4.4-4.8C380.4,328.3,367.8,299.5,367.8,299.5z"/>
	</g>
</g>
<path fill="none" stroke="#FFFFFF" stroke-width="6" stroke-linecap="round" stroke-linejoin="round" stroke-miterlimit="10" d="
	M319.8,179.7c-10.4-60.3-62.9-106.2-126.2-106.2c-24.1,0-46.6,6.7-65.9,18.2"/>
<path fill="none" stroke="#FFFFFF" stroke-width="6" stroke-linecap="round" stroke-linejoin="round" stroke-miterlimit="10" d="
	M63.7,195c-0.5,4.7-0.8,9.5-0.8,14.4c0,70.7,57.3,128.1,128.1,128.1c11.8,0,23.2-1.6,34-4.6"/>
<line fill="none" stroke="#FFFFFF" stroke-width="6" stroke-linecap="round" stroke-linejoin="round" stroke-miterlimit="10" x1="286.8" y1="84.1" x2="247.5" y2="84.1"/>
<line fill="none" stroke="#FFFFFF" stroke-width="6" stroke-linecap="round" stroke-linejoin="round" stroke-miterlimit="10" x1="131.2" y1="322.5" x2="88.9" y2="321.5"/>
<line fill="none" stroke="#FFFFFF" stroke-width="6" stroke-linecap="round" stroke-linejoin="round" stroke-miterlimit="10" x1="261.6" y1="122" x2="248.6" y2="89.4"/>
<line fill="none" stroke="#FFFFFF" stroke-width="6" stroke-linecap="round" stroke-linejoin="round" stroke-miterlimit="10" x1="121.8" y1="290.1" x2="129.6" y2="321.3"/>
<path fill="#FFFFFF" d="M196.6,247.9c-1,0.2-5.5,0.2-11.7,0c-0.3-0.1-0.7-0.2-1.2-0.4c-0.2-0.1-1-0.5-1.6-1.4
	c-0.6-0.9-0.7-1.9-0.7-2.3c-0.1-1.9-0.1-21.3,0-47.9c0.1-0.6,0.2-1.5,0.6-2.5c0.2-0.4,0.9-2.1,2.6-3.4c2.4-2,5.2-2.1,6.1-2.1
	c2.4,0,4.1,0.9,4.5,1.1c0.4,0.2,1.8,1,3,2.7c1.2,1.7,1.6,3.3,1.7,4.2c0.1,16.1,0.1,32.2,0.2,48.2c0,0.2-0.1,0.4-0.1,0.7
	c-0.1,0.4-0.3,1.1-1,1.7c-0.5,0.5-1,0.7-1.3,0.9C197.7,247.6,197.2,247.8,196.6,247.9z"/>
<ellipse transform="matrix(1 -2.450095e-03 2.450095e-03 1 -0.4018 0.4675)" fill="#FFFFFF" cx="190.6" cy="164.2" rx="9.2" ry="9.2"/>
</svg>
