<?xml version="1.0" encoding="utf-8"?>
<!-- Generator: Adobe Illustrator 21.0.2, SVG Export Plug-In . SVG Version: 6.00 Build 0)  -->
<svg version="1.1" baseProfile="tiny" id="Layer_1" xmlns="http://www.w3.org/2000/svg" xmlns:xlink="http://www.w3.org/1999/xlink"
	 x="0px" y="0px" viewBox="0 0 400 400" xml:space="preserve">
<line fill="none" stroke="#FFFFFF" stroke-width="6" stroke-linecap="round" stroke-linejoin="round" stroke-miterlimit="10" x1="89.1" y1="119.8" x2="226.5" y2="119.8"/>
<polyline fill="none" stroke="#FFFFFF" stroke-width="6" stroke-linecap="round" stroke-linejoin="round" stroke-miterlimit="10" points="
	90.1,178.9 175.5,178.9 227.5,178.9 "/>
<g id="XMLID_1_">
	<g>
		<path fill="#FFFFFF" d="M363,262.3v76.5l-54.5,54.7h-76.9l-54.7-54.8l0.3-76.4l54.4-54.8h76.9L363,262.3z M285.2,306.5
			c0-22.2,0.1-44.4,0.2-66.6c0-0.7-0.2-1.6-0.6-2.5c-0.3-0.5-0.5-0.9-0.6-1c-0.6-0.8-1.2-1.2-1.5-1.3c-0.9-0.6-1.8-0.8-2.3-0.8
			c-5.2,0-10.5,0-15.7-0.1c-0.4,0-1,0.1-1.7,0.3c-0.2,0.1-0.6,0.2-1.1,0.5c-0.8,0.5-1.3,1.1-1.6,1.5c-0.8,1-1,2.1-1.1,2.7
			c0,22.2,0.1,44.3,0.1,66.5c0,3.1,1.6,6.3,3.8,8.5c2.4,2.4,5.7,3.7,9,3.8c2.9,0,5.8-0.8,8.2-2.7C283,313.1,284.8,309.9,285.2,306.5
			z M285.1,351c0-7.1-5.8-12.9-12.9-12.9c-7.1,0-12.9,5.8-12.9,12.9c0,7.1,5.8,12.9,12.9,12.9C279.3,363.9,285.1,358.2,285.1,351z"
			/>
	</g>
	<g>
	</g>
</g>
<polyline fill="none" stroke="#FFFFFF" stroke-width="6" stroke-linecap="round" stroke-linejoin="round" stroke-miterlimit="10" points="
	163,293.4 33.4,293.4 33.4,76.4 103.4,4.7 266.8,4.7 266.8,193.4 "/>
<polygon fill="none" stroke="#FFFFFF" stroke-width="6" stroke-linecap="round" stroke-linejoin="round" stroke-miterlimit="10" points="
	33.7,76.1 103.6,76 103.5,4.5 "/>
</svg>
