<svg id="Layer_2" data-name="Layer 2" xmlns="http://www.w3.org/2000/svg" viewBox="0 0 400 400"><defs><style>.cls-1{fill:#fff;}</style></defs><title>final-icons-white-on-black new</title><path class="cls-1" d="M103.06,42.16c0.31-.68.6-1.37,0.92-2,1.89-3.95,4.88-6.36,9.14-6.36,57.85-.1,95.31,0,95.31,0,2.77,0,7.48.08,13.38,0L220,46.22c-7,.06-12.49,0-15.77-0.05-28.57-.44-57.14,0-85.71,0-3.47,0-3.49,0-3.49,3.59q0,49.64,0,99.28c0,3,.17,3.15,3.06,3.15H279c3,0,3.11-.16,3.11-3.33,0-12.54.44-25.08,0-37.61,0,0,0-1-.07-2.51-0.14-7-.2-10.56.68-12.27,2.07-4,8.53-4.45,11-4.48,0.09,5.25.23,9.81,0.38,13.46,1,25.54,0,39.91,0,68.68,0,8.06-4.15,12.39-11.86,12.4q-83.26,0-166.51.06c-6.41,0-10.72-2.43-12.69-8.93V42.16Z"/><path class="cls-1" d="M306.16,81.93c7.2,7.52,14.31,14.93,21.42,22.36a11.28,11.28,0,0,1,1.92,13.26A9.68,9.68,0,0,1,317.65,122a10.85,10.85,0,0,1-4.07-2.68c-7.21-7.43-14.32-15-21.58-22.57-14,9-28.72,11.21-44.26,5.71-11.59-4.1-20.45-11.88-26.76-22.81-12.32-21.33-8.07-49.7,9.87-66.15,18.52-17,45.44-17.72,64.64-1.79S321,57.34,306.16,81.93ZM264.32,17.36c-18.82,0-34,15.74-34,35.36s15.07,35.54,33.62,35.6c18.87,0.06,34.11-15.78,34.19-35.53C298.19,33.38,282.94,17.4,264.32,17.36Z"/><path class="cls-1" d="M198.19,221.08H168.29c-4.5,0-5.91-1.46-5.92-6.1q0-4.2,0-8.41c0-4.31,1.51-5.84,5.71-5.84h59.59c5,0,6.28,1.37,6.28,6.45q0,4,0,7.94c0,4.32-1.53,6-5.62,6Q213.26,221.1,198.19,221.08Z"/><rect class="cls-1" x="198.63" y="186.53" width="0.2" height="26.55"/><rect class="cls-1" x="195.28" y="178.53" width="6.79" height="22.18"/><g id="T3gA8P.tif"><path class="cls-1" d="M171.55,319.06a111.52,111.52,0,0,1,37.08-3.14c18,1.56,35.71,1.14,53.15-4.08,10-3,19.54-7.09,26.91-15.11,8.38-9.13,6.71-22-3.36-28.83-6.95-4.72-14.9-6.46-22.75-6.62-17.72-.37-35.48-0.1-53.18.79s-34.54-.33-50.86-8c-9.74-4.56-20.16-6.27-30.87-6.73-13.06-.56-25.24,3.53-37.68,6.54-11.76,2.84-23.53,6-35.47,7.57-10.45,1.37-21.16.56-31.74,1-11,.42-12.72,2-15.72,13.05-4.7,17.29-5,35-3.65,52.66A104.9,104.9,0,0,0,8,350.37c2,6.68,4.55,7.84,11.2,7.66,2.34-.06,4.68-0.21,7-0.31,23.24-1,46.53-2.13,69.63,1.3,12.32,1.83,24.53,5,36.56,8.46,23.73,6.8,47.08,14.81,69.57,25.43a95.14,95.14,0,0,0,15.14,5.52c15.12,4.2,28.76-.52,41.77-8.28,9.91-5.91,19.85-11.76,29.67-17.8C302.1,364,316.07,356.43,328.8,347c16.22-12,31.71-25.23,46.88-38.71a144.82,144.82,0,0,0,21-23.52c6.58-9.14,3.06-18.11-7.32-22.07-7.89-3-15.17-.59-22.37,2.58-12.62,5.55-23.88,13.51-35,21.76-15,11.14-29.51,23.07-46.55,30.82-26.37,12-53.24,16.41-81.55,7.68C193.06,322.18,181.63,321,171.55,319.06Zm197.33-64.88a20.32,20.32,0,0,0-1.25-2.09c-5.15-6.44-13.46-8.58-22.18-4.24-13.11,6.53-25.83,13.93-38.67,21.06a3.56,3.56,0,0,0-1.74,2.53c0.62,6,1.49,12,2.31,18.2C326.8,276.79,345.55,261.33,368.88,254.18Zm-83.25-1.33c4.17,2.82,7.74,5.4,11.49,7.64,0.77,0.46,2.35-.11,3.35-0.63,10.07-5.21,20.1-10.52,30.14-15.8l8.82-4.66c-6.44-4.73-12.74-6-19.53-3.42a121.67,121.67,0,0,0-11.32,5.1C301,244.89,293.43,248.84,285.63,252.85Z"/><path class="cls-1" d="M171.55,319.06c10.08,1.95,21.52,3.12,32.34,6.46,28.32,8.74,55.19,4.31,81.55-7.68,17-7.75,31.56-19.68,46.55-30.82,11.1-8.25,22.36-16.21,35-21.76,7.2-3.17,14.49-5.59,22.37-2.58,10.38,4,13.9,12.93,7.32,22.07a144.82,144.82,0,0,1-21,23.52C360.51,321.75,345,334.94,328.8,347c-12.72,9.45-26.7,17.06-40.19,25.36-9.83,6-19.77,11.9-29.67,17.8-13,7.76-26.65,12.48-41.77,8.28A95.14,95.14,0,0,1,202,392.91c-22.48-10.62-45.84-18.63-69.57-25.43-12-3.45-24.23-6.63-36.56-8.46-23.1-3.43-46.39-2.3-69.63-1.3-2.34.1-4.67,0.24-7,.31-6.65.18-9.17-1-11.2-7.66a104.9,104.9,0,0,1-4.63-22.23c-1.36-17.68-1-35.37,3.65-52.66,3-11,4.72-12.63,15.72-13.05,10.58-.4,21.29.4,31.74-1,11.94-1.56,23.71-4.73,35.47-7.57,12.44-3,24.62-7.1,37.68-6.54,10.7,0.46,21.13,2.18,30.87,6.73,16.31,7.64,33.3,8.84,50.86,8s35.46-1.15,53.18-.79c7.85,0.16,15.81,1.9,22.75,6.62,10.07,6.85,11.74,19.7,3.36,28.83-7.37,8-16.9,12.11-26.91,15.11-17.44,5.23-35.2,5.65-53.15,4.08A111.52,111.52,0,0,0,171.55,319.06Z"/><path class="cls-1" d="M368.88,254.18c-23.33,7.16-42.08,22.62-61.53,35.46-0.82-6.21-1.69-12.19-2.31-18.2a3.56,3.56,0,0,1,1.74-2.53c12.84-7.12,25.56-14.52,38.67-21.06,8.72-4.34,17-2.2,22.18,4.24A20.32,20.32,0,0,1,368.88,254.18Z"/><path class="cls-1" d="M285.63,252.85c7.8-4,15.34-8,22.94-11.76a121.67,121.67,0,0,1,11.32-5.1c6.79-2.57,13.09-1.31,19.53,3.42l-8.82,4.66c-10,5.28-20.07,10.58-30.14,15.8-1,.52-2.59,1.09-3.35.63C293.36,258.26,289.8,255.68,285.63,252.85Z"/></g></svg>