<?xml version="1.0" encoding="utf-8"?>
<!-- Generator: Adobe Illustrator 21.0.2, SVG Export Plug-In . SVG Version: 6.00 Build 0)  -->
<svg version="1.1" baseProfile="tiny" id="Layer_1" xmlns="http://www.w3.org/2000/svg" xmlns:xlink="http://www.w3.org/1999/xlink"
	 x="0px" y="0px" viewBox="0 0 400 400" xml:space="preserve">
<g>
	<path fill="#FFFFFF" d="M281.6,142.2l-51-88.4c-2.3-3.9-6.3-6.2-10.8-6.2c-4.5,0-8.6,2.3-10.8,6.2l-51,88.4
		c-2.3,3.9-2.3,8.6,0,12.5s6.3,6.2,10.8,6.2h102.1c4.5,0,8.6-2.3,10.8-6.2C283.8,150.8,283.8,146.1,281.6,142.2z M219.7,146.5
		c-4.5,0-8.1-3.6-8.1-8.1c0-4.5,3.6-8.1,8.1-8.1c4.5,0,8.1,3.6,8.1,8.1C227.8,142.9,224.2,146.5,219.7,146.5z M227.9,111.8
		c0,4.5-3.7,8.2-8.2,8.2c-4.5,0-8.2-3.7-8.2-8.2V74.3c0-2.1,1.7-3.9,3.9-3.9h8.6c2.1,0,3.9,1.7,3.9,3.9L227.9,111.8L227.9,111.8z"/>
</g>
<path fill="#FFFFFF" d="M241,344c-0.3-0.3-1.1-4.2-1.1-4.2s-0.1-28.2-0.1-29.5c0,1.5-8.2,2.9-9.2,1c-1.7-3.1,4.1-5.3,6-6.4
	c3.4-1.9,6.4-4.1,9.1-6.9c10.7-11.3,9.4-24.8,9.4-39l0.2-30c0-7.1,0.5-14.4-0.1-21.4c-0.1-1.5-0.6-3.1-1.7-4.1
	c-1.7-1.6-4.6-1.4-6.3,0.1c-2.8,2.4-2,7.2-2.1,10.5c-0.1,4.9-0.2,9.8-0.2,14.6c-0.1,4.2,1.5,12.9-1.7,16.2c-0.2,0.2-0.5,0.4-0.8,0.5
	c-0.3,0-0.6-0.2-0.9-0.5c-3-3.2-1.9-9.2-1.9-13.3c0-3.1,0-6.3,0-9.4c0-4.7,0-9.4-0.1-14.2c0-5.5,1.4-14.1-1.4-19.1
	c-0.9-1.5-2.5-2.7-4.2-2.5c-1.7,0.1-3,1.5-3.6,3.1c-1.3,3.4-0.7,7.9-0.7,11.4c0,4.3,0,8.6-0.1,12.9c0,4.6,0,9.3-0.1,13.9
	c0,3.3,0.8,8.1,0.2,11.2c-0.2,1.1-1.2,2.1-2.3,2.4c-1.1,0.3-2.4-0.2-3.1-1.1c-1.6-2-0.5-6.7-0.5-9.2c0-2.1,0-4.2,0-6.3
	c0-5.7,0-11.4,0-17.1c0-4.5,0-8.9,0-13.4c0-3.8,1-9.4-0.7-12.8c-0.8-1.7-2.7-3.1-4.6-2.9c-1.8,0.2-3.3,1.6-4,3.3
	c-1.6,3.7-0.7,9-0.7,12.9c0,4.9,0,9.9,0,14.8c0,5.3,0,10.5,0,15.8c0,1.9,0,3.8,0,5.8c0,2.5,0.7,5.5-0.1,7.8
	c-0.5,1.6-2.2,2.9-3.8,2.3c-1-0.3-1.6-1.3-1.9-2.3c-0.6-2.5-0.2-6-0.2-8.5c0-4.4,0-8.8,0-13.2c0-6.2,0-12.3,0-18.5
	c0-3.8,1.4-12.2-4.7-12.3c-7.6-0.1-5,18.6-5.1,23.3c0,9.3-0.1,18.5-0.1,27.8c0,0.8,0,1.7,0,2.5c0,2.3,0,4.5,0,6.8
	c0,3.7-0.8,5.5,2.9,6.7c8,2.8,14.8,7.1,18.7,15c2.2,4.4,3,10.1-0.3,13.7c-3-2.6-3.4-7-4.7-10.6c-2.2-5.9-7.5-10.5-13.6-11.9
	c-2.9-0.7-6.8-0.4-8.4-3.3c-1.4-2.5-0.3-6-0.2-8.7c0.2-4.2,0.4-8.3-0.1-12.5c-0.3-2.2-1.1-4.5-2.8-6.1c-1-1-2.4-1.7-3.7-2.1
	c-4-1.3-3.3,1.3-3.3,4.5c0,0,0.1,19.3,0.1,19.4c0.1,9.9-1.1,20.1,1,29.9c1.2,5.8,3.6,11.4,7.5,15.9c4.2,5,10.4,7.2,15,11.6
	c0.7,0.6,1.3,1.5,1,2.4c-0.3,0.9-1.3,1.2-2.2,1.3c-0.9,0.1-7-0.1-7-1.8l-0.1,28.7l-1,4.8l-3,0.1l-1-3.1l-0.2-1.6
	c0,0,0.2-27.9,0.2-29c0-3.8-3-6.2-5.4-8.9c-2-2.3-4.1-4.7-5.7-7.3c-3.3-5.6-4.3-12.3-4.5-18.8c-0.4-11.1-0.4-22.2-0.3-33.3
	c0-3.2,0-6.3,0-9.5c0-3-0.8-7.1,1-9.7c1-1.4,2.7-2.2,4.4-2.4c0.6-0.1,10.1,1.3,10,2.3c0-5.9,0.1-11.8,0.1-17.7
	c0-6.7-2-18.2,4.4-22.4c4-2.7,7.5-0.8,11.6-1.8c0.1-4.7,5.8-8,10.2-8c5.4-0.1,9.5,3.8,11.1,8.7c3.3-0.6,6.5-1.8,9.7,0.1
	c2.4,1.4,3.8,4,4.7,6.6c0.9,2.9,1.2,6.1,2.3,9c3-0.8,6.1-1,9,0.7c7.2,4.1,5,15,5,22c0,5.7,0,11.5,0.1,17.2
	c-0.1,22.4,4.4,48.6-12.2,66.5c-1.9,2-2.8,3.1-3,5.8l-0.1,5.8l0,11.6l0,12l0,1.5l-1,3.8L241,344z"/>
<polygon fill="none" stroke="#FFFFFF" stroke-width="6" stroke-linecap="round" stroke-linejoin="round" stroke-miterlimit="10" points="
	139.1,19.5 339.3,19.5 339.3,373.2 53.4,373.2 53.4,107.4 "/>
<polygon fill="none" stroke="#FFFFFF" stroke-width="6" stroke-linecap="round" stroke-linejoin="round" stroke-miterlimit="10" points="
	53.4,107.4 139.2,107.2 139.1,19.5 "/>
</svg>
